<svg xmlns="http://www.w3.org/2000/svg" viewBox="0 0 120 120" role="img" aria-label="Discord">
  <circle cx="60" cy="60" r="60" fill="#5865F2"/>
  <path fill="#fff" d="M84.9 39.3a67.7 67.7 0 0 0-16.8-5.2 47.8 47.8 0 0 0-2.2 4.6 62.7 62.7 0 0 0-17.9 0 47.8 47.8 0 0 0-2.2-4.6 67.6 67.6 0 0 0-16.8 5.2C18.6 55 15.7 70.2 17.1 85.2A67.9 67.9 0 0 0 37.7 96a50.5 50.5 0 0 0 4.4-7.2 43.6 43.6 0 0 1-6.9-3.4c.6-.4 1.1-.8 1.6-1.2 13.3 6.2 27.7 6.2 40.8 0 .5.4 1 .8 1.6 1.2a43.3 43.3 0 0 1-6.9 3.4 50.5 50.5 0 0 0 4.4 7.2 67.6 67.6 0 0 0 20.6-10.8c1.7-17.3-2.8-32.3-12.4-45.9ZM48.2 75.8c-4 0-7.4-3.7-7.4-8.3 0-4.6 3.2-8.3 7.4-8.3 4.1 0 7.5 3.7 7.4 8.3 0 4.6-3.3 8.3-7.4 8.3Zm23.6 0c-4.1 0-7.4-3.7-7.4-8.3 0-4.6 3.2-8.3 7.4-8.3 4.1 0 7.5 3.7 7.4 8.3 0 4.6-3.3 8.3-7.4 8.3Z"/>
</svg>
